<svg width="31" height="31" viewBox="0 0 31 31" fill="none" xmlns="http://www.w3.org/2000/svg">
<g clip-path="url(#clip0_423_1368)">
<path d="M26.9468 6.32648C26.2949 5.68063 25.5208 5.16831 24.6689 4.81876C23.8169 4.46922 22.9038 4.28931 21.9816 4.28931C21.0594 4.28931 20.1462 4.46922 19.2943 4.81876C18.4424 5.16831 17.6683 5.68063 17.0164 6.32648L15.6634 7.6662L14.3104 6.32648C12.9935 5.02253 11.2075 4.28998 9.3452 4.28998C7.48288 4.28998 5.69684 5.02253 4.37999 6.32648C3.06314 7.63042 2.32333 9.39895 2.32333 11.243C2.32333 13.0871 3.06314 14.8556 4.37999 16.1595L15.6634 27.3323L26.9468 16.1595C27.599 15.514 28.1164 14.7475 28.4694 13.9039C28.8224 13.0603 29.0041 12.1561 29.0041 11.243C29.0041 10.3299 28.8224 9.42566 28.4694 8.58207C28.1164 7.73847 27.599 6.97201 26.9468 6.32648Z" stroke="white" stroke-width="2.5" stroke-linecap="round" stroke-linejoin="round"/>
</g>
<defs>
<clipPath id="clip0_423_1368">
<rect width="30.6337" height="30.3333" fill="white" transform="translate(0.346558 0.5)"/>
</clipPath>
</defs>
</svg>
