<svg width="31" height="31" viewBox="0 0 31 31" fill="none" xmlns="http://www.w3.org/2000/svg">
<path d="M17.8518 26.875C17.6274 27.258 17.3053 27.576 16.9178 27.797C16.5302 28.018 16.0908 28.1344 15.6436 28.1344C15.1964 28.1344 14.757 28.018 14.3695 27.797C13.9819 27.576 13.6598 27.258 13.4354 26.875M23.302 10.4444C23.302 8.43319 22.4952 6.50434 21.0589 5.08219C19.6227 3.66004 17.6748 2.86108 15.6436 2.86108C13.6125 2.86108 11.6645 3.66004 10.2283 5.08219C8.79207 6.50434 7.9852 8.43319 7.9852 10.4444C7.9852 19.2916 4.15599 21.8194 4.15599 21.8194H27.1312C27.1312 21.8194 23.302 19.2916 23.302 10.4444Z" stroke="white" stroke-width="2.5" stroke-linecap="round" stroke-linejoin="round"/>
</svg>
